<?xml version="1.0" standalone="no"?>
<!DOCTYPE svg PUBLIC "-//W3C//DTD SVG 20010904//EN"
 "http://www.w3.org/TR/2001/REC-SVG-20010904/DTD/svg10.dtd">
<svg version="1.0" xmlns="http://www.w3.org/2000/svg"
 width="512.000000pt" height="512.000000pt" viewBox="0 0 512.000000 512.000000"
 preserveAspectRatio="xMidYMid meet">

<g transform="translate(0.000000,512.000000) scale(0.100000,-0.100000)"
fill="#000000" stroke="none">
<path d="M512 4954 c-122 -32 -253 -147 -317 -277 -33 -67 -39 -90 -43 -160
-4 -98 10 -139 68 -197 77 -77 201 -90 332 -35 12 5 24 -8 52 -55 125 -213
349 -456 564 -613 53 -38 81 -65 78 -74 -3 -7 -23 -39 -44 -71 -133 -195 -215
-444 -228 -689 l-7 -123 115 0 115 0 7 38 c3 20 6 58 6 84 0 71 34 232 69 329
28 76 107 229 131 253 9 9 16 -46 25 -209 l7 -109 56 -53 c31 -29 60 -52 63
-53 3 0 11 18 18 39 22 74 102 221 160 294 76 94 109 125 115 106 3 -8 19
-124 36 -259 48 -371 78 -542 98 -561 9 -9 117 -105 239 -212 l222 -195 75 24
c103 32 230 57 510 98 131 20 240 37 242 39 6 5 -643 745 -1050 1197 l-148
165 -57 6 c-31 4 -90 8 -131 9 -41 1 -88 5 -105 9 l-30 6 50 30 c151 92 344
151 528 162 l107 6 0 119 0 120 -87 -7 c-284 -21 -510 -92 -717 -228 l-69 -45
-56 78 c-158 222 -414 459 -625 580 -44 25 -56 36 -50 49 53 123 37 268 -38
338 -63 60 -173 78 -286 47z m216 -62 c86 -44 112 -173 59 -299 l-26 -63 72
-42 c273 -159 469 -347 706 -677 l17 -24 83 57 c195 133 431 216 661 233 l90
6 0 -65 0 -65 -97 -6 c-216 -13 -440 -100 -633 -243 l-65 -49 70 -6 c39 -4
141 -10 228 -14 l158 -8 37 -46 c20 -25 42 -49 47 -53 6 -4 -10 -8 -35 -8 -33
0 -41 -3 -30 -10 12 -8 11 -10 -7 -10 -13 0 -23 -4 -23 -10 0 -5 -8 -10 -18
-10 -10 0 -24 -9 -32 -20 -8 -11 -21 -20 -30 -20 -9 0 -22 -9 -30 -20 -18 -25
-30 -9 -30 40 -1 71 -12 66 -111 -45 -116 -132 -165 -200 -209 -298 -19 -42
-38 -76 -41 -77 -4 0 -16 8 -27 18 -18 15 -21 37 -32 237 -6 121 -13 222 -15
223 -7 7 -94 -112 -144 -196 -88 -148 -140 -308 -162 -497 l-13 -105 -64 0
-64 0 7 73 c28 291 106 492 293 756 12 17 5 24 -70 77 -263 186 -476 417 -631
686 l-28 48 -37 -16 c-20 -9 -48 -20 -62 -26 -14 -6 -54 -11 -90 -11 -286 -4
-256 388 44 562 91 52 209 62 284 23z"/>
<path d="M3550 4665 c-177 -190 -264 -290 -262 -302 6 -32 270 -864 275 -870
11 -10 642 -161 648 -155 4 4 44 120 89 257 46 138 85 255 87 261 3 9 -371
217 -487 271 -5 3 -100 -254 -100 -269 0 -7 66 -52 152 -102 l46 -27 13 56 c7
30 15 55 18 55 19 0 91 -48 91 -60 0 -22 -37 -191 -43 -197 -5 -4 -383 202
-422 231 -15 11 -8 32 85 241 56 127 105 234 109 238 4 4 103 -47 220 -114
117 -67 214 -120 216 -118 5 5 195 622 192 624 -2 2 -620 249 -652 261 -5 2
-129 -124 -275 -281z m859 -12 c3 -2 -31 -118 -74 -259 -64 -209 -81 -254 -94
-249 -9 3 -102 55 -207 116 -105 60 -196 109 -201 109 -9 0 -268 -569 -261
-574 18 -14 532 -296 539 -296 5 0 9 2 9 5 0 3 14 69 30 147 17 77 30 148 30
157 0 17 -176 115 -191 106 -4 -3 -11 -26 -15 -50 -3 -25 -11 -45 -18 -45 -9
0 -61 31 -94 55 -3 2 57 167 63 173 7 7 395 -203 395 -213 0 -14 -137 -425
-144 -432 -3 -4 -134 25 -290 63 l-283 69 -129 410 c-71 225 -129 413 -129
417 0 4 109 124 242 267 l242 260 288 -116 c159 -64 290 -118 292 -120z"/>
<path d="M1959 4753 c-162 -173 -298 -380 -373 -567 -20 -49 -36 -94 -36 -102
0 -7 11 -25 23 -40 l24 -27 77 41 c154 83 332 143 514 172 39 7 72 14 72 18 0
3 -25 64 -56 136 -64 150 -117 303 -135 394 -7 34 -16 62 -20 62 -4 0 -44 -39
-90 -87z m86 -93 c9 -36 44 -134 77 -218 34 -84 59 -154 57 -155 -2 -2 -42
-10 -89 -20 -120 -23 -258 -71 -375 -127 -55 -27 -101 -48 -103 -46 -6 7 50
142 94 225 25 47 74 127 109 176 75 104 197 245 206 236 3 -3 14 -35 24 -71z"/>
<path d="M3161 4744 c-156 -29 -286 -55 -288 -58 -7 -7 -144 -968 -141 -988 2
-9 174 -211 383 -447 262 -297 386 -431 400 -431 11 0 281 32 600 71 l581 72
127 520 c70 287 124 524 119 528 -18 17 -475 200 -482 192 -4 -4 -17 -40 -29
-80 -12 -40 -24 -79 -27 -87 -4 -9 15 -29 55 -57 34 -24 61 -47 61 -52 0 -6
-54 -176 -120 -379 -90 -274 -125 -368 -136 -368 -23 0 -798 200 -805 208 -4
4 -75 223 -158 487 l-150 480 151 199 c146 193 169 229 151 238 -4 3 -136 -19
-292 -48z m65 -201 l-135 -178 161 -510 c88 -280 162 -512 164 -514 2 -2 195
-53 429 -112 234 -59 434 -110 444 -114 17 -5 33 36 157 407 75 227 138 418
140 423 2 6 -25 29 -61 52 l-64 43 14 46 c7 25 16 48 18 51 3 2 92 -32 198
-76 165 -68 194 -83 192 -100 -5 -38 -225 -936 -232 -944 -4 -4 -232 -34 -507
-67 -274 -33 -516 -63 -536 -66 -34 -5 -38 -3 -38 15 0 12 -6 21 -12 21 -9 0
-8 4 2 10 13 9 13 10 0 10 -13 0 -13 1 0 10 12 8 10 10 -10 10 -20 0 -22 2
-10 10 13 9 13 10 0 10 -13 0 -13 1 0 10 12 8 10 10 -10 10 -20 0 -22 2 -10
10 13 9 13 10 0 10 -13 0 -13 1 0 10 12 8 10 10 -10 10 -20 0 -22 2 -10 10 13
9 13 10 0 10 -13 0 -13 1 0 10 12 8 10 10 -10 10 -20 0 -22 2 -10 10 13 9 13
10 0 10 -13 0 -13 1 0 10 12 8 10 10 -10 11 -14 0 -19 3 -12 6 8 3 2 14 -18
33 -20 19 -26 30 -18 33 7 3 2 6 -12 7 -14 1 -19 4 -12 7 8 3 2 14 -18 33 -20
19 -26 30 -18 33 8 3 5 6 -5 6 -25 1 -51 28 -34 34 6 3 1 6 -13 6 -20 1 -22 3
-10 11 12 8 10 10 -10 10 -20 0 -22 2 -10 10 12 8 11 10 -5 10 -11 0 -27 9
-35 20 -8 11 -24 20 -35 20 -16 0 -17 2 -5 10 12 8 10 10 -10 10 -20 0 -22 2
-10 10 11 7 6 10 -20 10 -26 0 -31 3 -20 10 12 8 11 10 -7 10 -13 0 -23 5 -23
10 0 6 -8 10 -18 10 -10 0 -24 9 -32 20 -8 12 -26 20 -42 20 -15 0 -28 5 -28
10 0 6 -9 10 -20 10 -11 0 -20 5 -20 10 0 6 -7 10 -16 10 -15 0 -107 93 -133
136 -13 20 -8 70 49 481 35 252 65 460 67 462 5 6 381 78 416 80 26 1 20 -9
-107 -176z"/>
<path d="M2237 3775 c-43 -7 -81 -15 -83 -18 -3 -3 164 -190 404 -452 l73 -80
-6 75 c-8 99 -37 207 -97 363 l-49 127 -82 -1 c-45 -1 -117 -7 -160 -14z m222
-84 c11 -27 21 -54 21 -60 0 -6 -18 -11 -40 -11 -22 0 -40 -4 -40 -10 0 -28
-43 -4 -90 50 -56 65 -56 67 20 73 114 9 106 12 129 -42z"/>
<path d="M2899 3252 c-9 -9 -51 -45 -93 -80 l-77 -63 78 -87 c43 -48 140 -158
217 -245 76 -86 144 -157 150 -157 54 0 456 133 456 151 0 3 -60 18 -132 33
-269 55 -398 103 -470 174 -21 20 -38 39 -38 42 0 3 20 19 45 35 24 17 45 33
45 36 0 8 -152 179 -159 178 -3 0 -13 -8 -22 -17z"/>
<path d="M1715 2963 c-30 -69 -73 -256 -85 -372 -16 -140 -8 -460 15 -611 20
-137 57 -264 101 -355 l36 -73 -90 -178 c-146 -293 -240 -445 -374 -611 -193
-238 -427 -360 -622 -324 -200 37 -310 210 -262 413 35 148 151 327 265 406
122 85 215 115 274 87 84 -40 76 -180 -17 -282 l-35 -39 70 -85 c38 -46 73
-85 78 -87 16 -5 127 125 153 179 107 228 25 476 -179 539 -121 37 -237 21
-373 -51 -168 -90 -303 -234 -395 -424 -66 -137 -87 -221 -87 -345 2 -240 135
-431 359 -516 83 -32 242 -43 348 -25 144 25 316 115 456 238 60 53 60 53 274
104 187 45 275 74 402 134 110 52 223 122 317 196 l49 39 -133 0 c-165 0 -278
24 -370 78 -34 20 -64 42 -67 48 -2 7 11 43 30 80 47 93 121 265 229 529 49
121 117 280 151 354 l61 134 -75 69 c-98 90 -114 89 -145 -6 -13 -38 -26 -71
-28 -73 -12 -12 -90 77 -116 132 -52 109 -103 335 -141 628 -7 53 -16 97 -20
97 -4 0 -14 3 -23 6 -11 4 -20 -5 -31 -33z m28 -1074 c12 0 16 -3 9 -6 -9 -4
-7 -10 8 -23 15 -13 17 -19 8 -23 -8 -3 -6 -6 5 -6 25 -1 51 -28 34 -34 -7 -3
-4 -6 6 -6 25 -1 51 -28 34 -34 -6 -3 -2 -6 11 -6 12 -1 22 -5 22 -11 0 -5 10
-10 23 -10 18 0 19 -2 7 -10 -12 -8 -10 -10 10 -10 20 0 22 -2 10 -10 -12 -8
-11 -10 8 -10 12 0 22 -4 22 -10 0 -5 7 -10 16 -10 8 0 22 -7 30 -15 9 -8 12
-15 7 -15 -5 0 -9 -9 -10 -20 -2 -25 -152 -376 -210 -493 l-44 -89 38 -34 c81
-72 254 -134 375 -134 32 0 58 -4 58 -10 0 -15 -179 -117 -272 -155 -92 -37
-259 -86 -448 -131 -98 -24 -121 -33 -155 -64 -187 -170 -388 -260 -577 -260
-156 1 -288 51 -384 146 -208 208 -192 536 42 847 79 105 157 170 279 232 122
61 206 76 299 51 152 -41 240 -196 206 -361 -16 -77 -53 -155 -99 -206 l-36
-41 -43 53 -43 52 25 26 c66 69 92 211 51 280 -35 59 -68 76 -144 75 -168 -1
-371 -166 -481 -389 -115 -233 -88 -432 76 -553 204 -151 496 -89 744 160 90
89 201 233 284 367 73 118 213 380 262 489 l37 83 -41 77 c-40 75 -86 217 -77
233 3 4 1 10 -5 14 -5 3 -10 12 -9 18 0 9 2 9 6 0 2 -7 14 -13 26 -14z"/>
<path d="M3672 2237 c-23 -24 -40 -46 -36 -50 3 -3 0 -25 -8 -49 l-15 -43 179
-215 c99 -118 189 -228 202 -244 l22 -29 84 52 c121 75 222 153 318 245 l83
80 -93 19 c-111 23 -357 96 -560 167 l-146 52 8 29 c5 16 8 29 6 29 -1 0 -21
-19 -44 -43z m535 -237 c82 -23 157 -45 167 -49 17 -6 9 -16 -55 -70 -70 -59
-275 -202 -288 -200 -3 0 -84 95 -179 211 -162 197 -173 212 -168 243 l6 32
185 -63 c102 -35 251 -82 332 -104z"/>
<path d="M3430 2209 c-66 -16 -315 -58 -500 -85 -393 -55 -545 -119 -545 -228
0 -89 119 -261 230 -331 108 -68 221 -83 341 -43 219 72 403 275 518 575 20
51 36 99 36 108 0 17 -24 18 -80 4z"/>
<path d="M3550 1967 c0 -68 -137 -274 -256 -386 l-84 -78 217 -180 c571 -470
1115 -894 1444 -1126 61 -43 67 -45 82 -30 15 15 11 24 -50 112 -116 168 -465
629 -674 892 -189 238 -618 760 -660 804 -19 19 -19 19 -19 -8z m157 -242
c341 -406 661 -808 922 -1158 170 -228 205 -279 181 -261 -312 230 -649 490
-925 713 -148 120 -585 481 -585 484 0 1 32 36 72 77 68 72 180 228 193 271 4
11 11 19 15 17 5 -2 62 -66 127 -143z"/>
</g>
</svg>
