<?xml version="1.0" standalone="no"?>
<!DOCTYPE svg PUBLIC "-//W3C//DTD SVG 20010904//EN"
 "http://www.w3.org/TR/2001/REC-SVG-20010904/DTD/svg10.dtd">
<svg version="1.0" xmlns="http://www.w3.org/2000/svg"
 width="512.000000pt" height="512.000000pt" viewBox="0 0 512.000000 512.000000"
 preserveAspectRatio="xMidYMid meet">

<g transform="translate(0.000000,512.000000) scale(0.100000,-0.100000)"
fill="#000000" stroke="none">
<path d="M1879 3912 l-515 -1037 43 -55 c86 -109 179 -334 237 -570 26 -110
69 -351 81 -456 l7 -61 159 -22 c419 -59 757 -171 940 -313 20 -15 42 -28 47
-28 21 0 2072 1024 2072 1034 -1 43 9 45 -807 -118 l-788 -157 -378 -126
c-208 -69 -380 -123 -383 -121 -2 3 -30 133 -61 289 -31 156 -61 289 -67 295
-6 6 -139 36 -295 67 -156 31 -286 59 -288 61 -3 3 54 182 125 398 l130 393
153 773 c160 804 158 792 114 792 -5 0 -242 -467 -526 -1038z m331 117 l-139
-694 -130 -389 c-72 -214 -130 -391 -128 -392 1 -1 139 -29 306 -63 167 -33
305 -62 307 -63 1 -2 29 -140 63 -307 33 -167 62 -306 64 -307 2 -2 179 55
393 127 l389 130 695 140 c382 76 697 139 700 138 10 -1 -1825 -918 -1839
-918 -7 -1 -43 19 -80 43 -219 145 -475 222 -998 302 -27 4 -33 10 -37 37 -51
337 -79 465 -141 655 -46 137 -133 317 -185 380 l-29 35 462 923 c254 508 463
922 464 920 2 -1 -60 -315 -137 -697z"/>
<path d="M1825 2319 l-78 -81 247 -246 246 -247 82 83 83 82 -245 245 c-135
135 -248 245 -251 245 -3 0 -41 -36 -84 -81z m458 -451 l-48 -48 -207 207
-208 208 47 47 48 48 207 -207 208 -208 -47 -47z"/>
<path d="M3691 4001 l-1225 -948 -98 -198 c-55 -109 -96 -201 -91 -205 4 -4
71 -19 148 -35 77 -15 145 -32 151 -39 6 -6 24 -77 40 -158 15 -82 33 -148 39
-147 5 0 96 44 202 97 l192 97 944 1215 c519 669 946 1221 950 1226 4 6 -1 18
-11 27 -16 15 -104 -51 -1241 -932z m1021 697 c-27 -35 -265 -342 -529 -683
-263 -341 -634 -819 -823 -1063 l-343 -443 -167 -84 -166 -83 -28 143 -28 143
-143 28 -143 28 83 167 84 167 1123 871 c618 479 1125 871 1126 871 2 0 -18
-28 -46 -62z"/>
<path d="M1493 2115 c5 -28 -16 -52 -413 -450 l-419 -420 -90 -300 c-80 -269
-87 -301 -73 -312 9 -7 18 -13 21 -13 4 0 250 244 548 543 l542 542 -25 165
c-13 91 -25 175 -26 188 -1 12 -18 37 -36 55 l-35 32 6 -30z m43 -270 l17
-127 -497 -496 c-273 -274 -494 -490 -491 -482 2 8 36 120 74 249 l70 235 398
398 c363 363 398 396 404 374 4 -14 15 -82 25 -151z"/>
<path d="M1710 1600 c0 -5 -6 -10 -13 -10 -6 0 -252 -240 -546 -534 -487 -487
-532 -535 -522 -554 9 -17 16 -19 39 -12 15 5 151 46 302 90 l275 81 437 437
c281 281 433 439 425 443 -7 4 -73 17 -147 28 -74 12 -154 26 -178 31 -54 13
-72 13 -72 0z m209 -77 l103 -16 -403 -402 -404 -402 -95 -27 c-52 -14 -162
-46 -244 -70 l-150 -45 495 495 494 495 50 -6 c28 -3 97 -13 154 -22z"/>
<path d="M272 857 l-122 -122 0 -293 0 -292 293 0 292 0 123 123 c67 67 122
127 122 132 -1 41 -13 39 -380 -70 -199 -59 -364 -104 -367 -101 -3 2 43 168
102 367 107 365 110 378 70 379 -6 0 -65 -55 -133 -123z m15 -236 l-72 -244
-3 174 -2 173 72 73 c39 40 73 71 74 70 1 -1 -30 -112 -69 -246z m508 -341
l-80 -80 -179 0 c-99 0 -177 2 -174 5 4 5 492 153 508 154 2 1 -31 -35 -75
-79z"/>
</g>
</svg>
