<?xml version="1.0" standalone="no"?>
<!DOCTYPE svg PUBLIC "-//W3C//DTD SVG 20010904//EN"
 "http://www.w3.org/TR/2001/REC-SVG-20010904/DTD/svg10.dtd">
<svg version="1.0" xmlns="http://www.w3.org/2000/svg"
 width="512.000000pt" height="512.000000pt" viewBox="0 0 512.000000 512.000000"
 preserveAspectRatio="xMidYMid meet">

<g transform="translate(0.000000,512.000000) scale(0.100000,-0.100000)"
fill="#000000" stroke="none">
<path d="M2465 5082 c-281 -150 -594 -441 -812 -752 -168 -242 -300 -535 -372
-831 -72 -297 -85 -525 -78 -1394 4 -436 9 -655 17 -688 30 -122 118 -190 270
-207 113 -13 2027 -13 2140 0 152 17 240 85 270 207 17 69 25 1243 11 1528
-12 249 -29 376 -72 554 -148 605 -530 1152 -1049 1501 -103 70 -201 120 -232
120 -13 0 -54 -17 -93 -38z m181 -358 c171 -122 350 -290 469 -439 210 -263
367 -586 434 -895 48 -227 51 -281 51 -1101 l0 -769 -1040 0 -1040 0 0 769 c0
820 3 874 51 1101 114 525 447 1014 913 1341 38 27 72 49 77 49 4 0 42 -25 85
-56z"/>
<path d="M2485 4343 c-229 -133 -427 -384 -549 -696 -35 -88 -81 -267 -101
-387 -23 -143 -36 -477 -33 -835 l3 -320 755 0 755 0 3 315 c3 353 -10 697
-33 840 -58 358 -200 666 -407 885 -44 47 -108 106 -141 131 -59 44 -168 105
-184 103 -4 0 -35 -16 -68 -36z m149 -390 c193 -196 316 -483 356 -828 5 -50
10 -228 10 -397 l0 -308 -441 0 -441 0 5 368 c5 379 8 409 56 599 37 150 113
317 199 439 49 69 166 194 182 194 4 0 38 -30 74 -67z"/>
<path d="M1443 1060 c-95 -14 -173 -76 -217 -170 -20 -43 -21 -61 -21 -355 l0
-310 28 -57 c34 -69 92 -121 161 -145 48 -17 122 -18 1166 -18 1238 0 1169 -4
1253 66 95 78 111 157 105 518 -3 232 -6 260 -24 302 -30 66 -78 114 -142 146
l-57 28 -1100 1 c-605 1 -1123 -2 -1152 -6z m2157 -525 l0 -215 -1040 0 -1040
0 0 215 0 215 1040 0 1040 0 0 -215z"/>
</g>
</svg>
